<?xml version="1.0" encoding="UTF-8"?>
<svg id="Layer_1" xmlns="http://www.w3.org/2000/svg" version="1.1" viewBox="0 0 225 225">
  <!-- Generator: Adobe Illustrator 29.1.0, SVG Export Plug-In . SVG Version: 2.1.0 Build 142)  -->
  <path fill="currentColor" d="M157.3,202.9c-13.6,0-18.6-.2-19.4-.3-2.7-.5-2.8-.7-3-1.4-.8-2.2-.9-7.7-.9-14.2,0-13.4,0-13.5,1.3-14.7,1.2-1.2,1.3-1.3,15.7-1.3h20v-20c0-14.4,0-14.5,1.3-15.7,1.2-1.2,1.3-1.3,14.7-1.3s12.1,0,14.2.9c.6.2.9.3,1.4,3.1.2,1.5.4,14.3.2,33.3-.2,18.9-.3,28.4-1,29.8,0,0-.3.3-.4.4s-.4.4-.4.4c-1.3.7-10.8.8-29.8,1-4.8,0-9.4,0-13.9,0ZM56.6,202.5c-20.7,0-30.2,0-31.6-.7,0,0-.3-.2-.4-.4-.1-.1-.4-.4-.4-.4-.7-1.3-.8-10.8-1-29.8-.2-19,0-31.8.2-33.3.2-1.2,1.1-2.7,1.4-3.1.7-.7,4-.8,13-.8h4.5c3.4,0,8.5,0,9.2.9,1,1.2,1.1,6.3,1.2,12.8l.4,23.1,20.2.4c5.7.1,14.2.3,15.5,1,.6,1.1.8,9.1.9,13.8q.3,13.3-1.2,15l-1.3,1.5h-30.7ZM31.1,90c-4.6,0-4.7-.1-6.1-1.3l-1.5-1.3-.2-29.5c-.1-15.9-.2-25.2.4-29.9.4-3.1.7-3.3,2.1-4,2.2-.7,14.9-.7,19.1-.7s8,0,12.9,0l29.5.2,1.3,1.5q1.5,1.7,1.2,14c0,4.1-.3,11.8-.9,12.9-1.2.6-9.8.8-15.4.9l-20.2.4-.4,20.2c-.1,5.7-.3,14.2-1,15.5-1.1.6-8.7.8-12.8.9-3.4,0-6,.1-7.9.1ZM194.6,90c-2.1,0-4.7,0-8.6-.1-4.8-.1-12.7-.3-13.9-.9-.6-1.2-.8-9.8-.9-15.4l-.4-20.2-22.9-.4c-6.4-.1-11.9-.2-13-1.2-.9-.8-.9-5.7-.9-10.9v-2.2c0-6.5.2-11.6.4-13.4.3-.3.9-.7,1.6-1,2-.9,15-.9,20.6-.9s8.1,0,13.1,0c20.5.1,29.9.2,31.3.9,0,0,.3.3.4.4.2.2.4.4.4.4.7,1.4.7,10.9.7,31.6v30.7l-1.5,1.3c-1.4,1.2-1.5,1.3-6.4,1.3h0Z"/>
</svg>