<?xml version="1.0" encoding="UTF-8"?>
<svg id="a" data-name="Layer 2" xmlns="http://www.w3.org/2000/svg" width="30.86" height="30.93" viewBox="0 0 30.86 30.93">
  <polygon fill="currentColor" points="7.07 27.79 12.39 22.63 8.67 18.92 3.13 24.12 .15 21.12 0 30.85 10.11 30.93 7.07 27.79"/>
  <polygon fill="currentColor" points="23.79 3.14 18.48 8.3 22.2 12.01 27.73 6.81 30.71 9.81 30.86 .08 20.76 0 23.79 3.14"/>
  <polygon fill="currentColor" points="3.14 7.07 8.3 12.39 12.01 8.67 6.81 3.13 9.81 .15 .08 0 0 10.11 3.14 7.07"/>
  <polygon fill="currentColor" points="27.53 23.86 22.38 18.54 18.67 22.26 23.86 27.79 20.86 30.78 30.6 30.93 30.68 20.82 27.53 23.86"/>
</svg>