<?xml version="1.0" encoding="UTF-8"?>
<svg id="Layer_1" xmlns="http://www.w3.org/2000/svg" version="1.1" viewBox="0 0 45 45">
  <!-- Generator: Adobe Illustrator 29.1.0, SVG Export Plug-In . SVG Version: 2.1.0 Build 142)  -->
  <path fill="currentColor" d="M32.6,13.5c.3.2.6.2,3.4.2h.6c.2,0,.3,0,.5,0,1.5,0,2.2,0,2.6-.4.4-.4.4-1.1.4-2.2v-2.2s-.4-.8-.4-.8c-.6-1.2-1.6-2.2-2.6-2.5-.3-.1-.5-.2-.6-.2-.3-.2-7.3-.1-7.3-.1-.3,0-.6.3-.8.6-.2.4-.3.8-.2,1.1.1.5,4.1,6.4,4.5,6.7ZM33.3,12.1c-.4-.7-2.7-4.1-3.5-5.4.5,0,1.4,0,2.5,0,2.2,0,2.9,0,3.1,0,.1,0,.5.1,1.1.4.6.3,1.2.9,1.5,1.6q.3.6.3,2.1c0,.6,0,1.1,0,1.4-.9,0-4.3,0-5,0Z"/>
  <path fill="currentColor" d="M27.4,25c-.1,0-.6-.3-1-.5-.5-.3-.7-.4-.8-.4,0,0-.2-.2-.4-.3-.3-.2-1.6-.9-2.7-1.5-.2-.1-.4-.2-.5-.3,0-.1-.2-.2-.3-.2-.1,0-1.1-.5-1.4-.8-.4-.3-1.2-.2-1.6,0h0c-.2.1-.5.4-.6.7l-.3.4v4.6q0,5,.5,5.5c.4.4.7.5,1.2.5s.8-.2,2.8-1.3c.5-.3.9-.5,1-.6h0c.1,0,.3-.2.9-.5,1-.6,1.3-.8,1.9-1.1.2-.1.7-.4.9-.5.3-.2.6-.4.7-.4.4-.2.9-.8.9-1.2,0-.7,0-1-.5-1.5-.2-.2-.5-.5-.7-.6ZM20.9,30.5c-.2,0-.5.2-.8.4-.5.4-.5.3-.6.2,0-.2,0-1.4,0-4.3s0-4.2,0-4.4c0,0,0,0,0,0h0s0,0,.2,0h0c.1.1.4.3.5.3,0,0,.2.1.5.3.3.2.8.5,1.3.8.4.2,1,.5,1.2.7.3.2.5.3.6.3,0,0,.3.2.6.4.5.3.7.4.8.4.3.1,1.8,1,1.9,1.1,0,0,0,0,0,0,0,0-.1.3-.2.3,0,0-.2,0-.7.3-.3.2-.5.3-.5.3-.2,0-.5.2-.6.3-.2.2-2.1,1.3-2.4,1.5,0,0-.2,0-.5.3-.2.1-.4.2-.4.2-.2,0-.5.3-.6.3-.1.1-.2.2-.2.2Z"/>
  <path fill="currentColor" d="M5.3,13.1c.4.6.4.6,5.1.6h.8q5,0,5.3-.6c.4-.7,0-1.6-1-2.9-.2-.2-.3-.4-.3-.4,0-.2-.2-.5-.2-.5,0,0-.2-.2-.2-.3-.1-.2-.2-.3-.3-.4,0,0,0,0,0-.2-.1-.2-.2-.3-.3-.4,0-.2-.2-.3-.2-.4,0,0-.3-.4-.6-.9-.2-.4-.6-.9-.7-1,0,0,0-.1-.1-.1,0,0,0-.2-.2-.3-.5-.4-2.7-.4-3.5-.1-1.5.5-2.4,1.3-3.2,2.8-.4.8-.5,1.6-.5,3.3,0,1.2,0,1.5.3,1.8ZM6.7,12.1c0-.7,0-2.6,0-2.8,0-.5.6-1.3,1-1.7.5-.5,1.1-.8,1.3-.8.1,0,.4,0,.5-.1,0,0,0,0,0,0,.1,0,.4,0,.9,0s.6,0,.7,0c.1.2.4.5.4.5,0,.2,0,.3.2.4,0,0,.2.2.3.4.4.6.4.6.4.6,0,0,0,.1.1.2.1.2.2.3.3.4,0,.2.3.6,1.1,1.7.3.5.6.9.8,1.2-1.5,0-5.9,0-8.2,0Z"/>
  <path fill="currentColor" d="M39.3,14.8h0c-.3-.2-.3-.2-16.6-.2-.7,0-16.2,0-16.5,0h0c-.5.1-.9.6-1,1-.1.5,0,19.5,0,20.1.1.7.6,1.8,1.1,2.4.7.8,1.7,1.5,2.4,1.6,0,0,.2,0,.2,0,.1,0,.2.1,13.5.2h2.2c2.1,0,3.9,0,5.3,0,6.4,0,6.6,0,7.3-.5h.2c1.2-.7,2.2-1.9,2.6-3.3,0-.2.1-1.2.1-10.4v-1.7q0-9-.6-9.3ZM35.4,38.4c0,0-.1,0-.1,0,0,0,.1,0,.2,0-.2-.2-1.6-.2-12.7-.2h-.4c-4.7,0-12.2,0-12.6,0h0s0,0,0,0c-.2,0-.4-.2-.6-.2s0,0,0,0c0,0-.2-.2-.4-.2,0-.1-.2-.2-.3-.2-.2,0-.9-.8-1.1-1.1v-.2c-.5-.6-.5-.7-.5-9v-11.5s31.7,0,31.7,0v19.7s-.4.6-.4.6c-.2.5-.4.7-.7,1-.8.7-1.2.7-1.3.7-.2,0-.4,0-.6.2Z"/>
  <path fill="currentColor" d="M16.4,10.1c2,2.9,2.3,3.3,2.5,3.4.3.2.4.2,5.2.2.7,0,1.5,0,2.2,0,1.5,0,2.8,0,3,0,.4,0,.8-.3,1-.6s.2-.8,0-1.2c-.1-.3-4.1-6.4-4.5-6.6-.2-.1-.5-.2-5.4-.2-.2,0-5.1,0-5.3,0h0c-.3,0-.5.3-.7.5-.2.3-.3.7-.2,1,0,.2,1.8,2.9,2.2,3.4ZM16,6.8c.8,0,2.5,0,4.3,0h4.7s1.6,2.3,1.6,2.3c.9,1.4,1.8,2.7,2,2.9,0,0,0,0,0,0-.7,0-2.3,0-4.4,0h-4.7s-.1-.2-.1-.2c-.1-.1-.3-.4-.4-.5-.1-.2-1-1.5-1.7-2.6-.6-.9-1.1-1.6-1.4-2Z"/>
</svg>