<?xml version="1.0" encoding="UTF-8"?>
<svg id="Layer_1" xmlns="http://www.w3.org/2000/svg" version="1.1" viewBox="0 0 41.6 28.2">
  <!-- Generator: Adobe Illustrator 29.1.0, SVG Export Plug-In . SVG Version: 2.1.0 Build 142)  -->
  <g id="a">
    <path fill="currentColor" d="M38.9,13s1.9-1.1,1.9-3.8c0-.7-.4-1.5-.9-2.2-.6-1-1.7-1.5-2.8-1.5h-7.5v17h6.8c.7,0,1.3-.2,1.9-.5,1-.6,2.5-2,2.8-4.8,0-1.6-2.2-4.1-2.2-4.1h0ZM36.6,18.2h-3.7v-3.1h3.6s.8.6.8,1.6-.6,1.6-.6,1.6h0ZM36.6,11.9h-3.7v-3.1h3.6s.8.6.8,1.6-.6,1.6-.6,1.6h0Z"/>
  </g>
  <g id="b">
    <path fill="currentColor" d="M17.7,5.4h-2.8v10.9c0,1.3.6,3.1,1.6,4,1.1,1.2,2.3,2,4.1,2.1,1.2,0,2.7-.4,3.7-1.4,1.9-1.8,2.4-4.7,2.4-7.2V5.4h-2.9v8.3c0,.7-.1,1.5-.4,2.2-.4,1.1-1.2,2.1-2.5,2.1-1.4,0-2.3-1.3-2.7-2.5-.2-.6-.3-1.1-.3-1.8V5.4s0,0,0,0Z"/>
  </g>
  <g id="c">
    <path fill="currentColor" d="M10.8,8c.2-.3.2-.7,0-1-.5-.7-1.8-1.9-4.2-1.8-2.7,0-4.4,1.5-4.9,2.1-1.5,1.4-1.4,4.7.2,6l5.2,2.7c.5.2.6.9.2,1.3-.6.5-1.2,1.1-1.2,1,0,0-2-1.1-3-1.7-.4-.2-.9,0-1.1.3l-1.2,2.2c-.2.3,0,.8.2,1,1,.8,3.4,2.4,5.7,2.3,2.5-.1,4.3-2.6,4.7-3.3.9-1.6.5-3.4-.5-4.9l-5.4-3.5c-.2-.1-.4-.4-.4-.7v-.5c0-.4.5-.8.8-.8h1.2c.4,0,.8.4,1,.5l.7.5c.3.3.8,0,1.1-.3l1.1-1.5h0Z"/>
  </g>
</svg>