<?xml version="1.0" encoding="UTF-8"?>
<svg xmlns="http://www.w3.org/2000/svg" width="37.53" height="17.27" viewBox="0 0 37.53 17.27">
  <g id="a" data-name="Layer 4">
    <path fill="currentColor" d="M35.32,7.81s1.88-1.13,1.88-3.81c-.02-.68-.44-1.5-.9-2.2-.63-.96-1.7-1.52-2.84-1.52h-7.5v16.99h6.85c.68,0,1.35-.17,1.92-.53,1.05-.65,2.49-2.04,2.81-4.84.09-1.6-2.21-4.09-2.21-4.09ZM32.99,13h-3.69v-3.14h3.56s.8.65.76,1.57c-.04.92-.64,1.57-.64,1.57ZM32.99,6.77h-3.69v-3.14h3.56s.8.65.76,1.57c-.04.92-.64,1.57-.64,1.57Z"/>
  </g>
  <g id="b" data-name="Layer 5">
    <path fill="currentColor" d="M15.11.28h-2.82l.03,10.94c0,1.31.62,3.05,1.54,3.99,1.15,1.17,2.31,2,4.07,2.06,1.16.04,2.74-.44,3.73-1.39,1.88-1.81,2.4-4.65,2.36-7.25l-.15-8.34h-2.75v8.27c0,.74-.13,1.47-.4,2.16-.44,1.12-1.24,2.12-2.55,2.14-1.43.02-2.33-1.33-2.74-2.51-.19-.56-.29-1.15-.29-1.75l-.04-8.31Z"/>
  </g>
  <g id="c" data-name="Layer 6">
    <path fill="currentColor" d="M10.18,2.81c.22-.28.23-.68.01-.96C9.65,1.14,8.38-.02,5.98,0,3.25.03,1.6,1.52,1.04,2.12c-1.47,1.44-1.37,4.67.21,5.97l5.19,2.71c.49.25.57.92.16,1.28-.55.5-1.18,1.05-1.21,1.04-.04-.01-1.96-1.09-3.02-1.69-.38-.22-.87-.07-1.08.32L.11,13.96c-.18.34-.09.76.22,1,1.04.78,3.43,2.39,5.65,2.3,2.51-.1,4.27-2.62,4.72-3.34.86-1.55.48-3.38-.52-4.87l-5.44-3.46c-.22-.14-.36-.38-.36-.65v-.52c-.02-.44.48-.75.78-.8h1.15c.38.04.83.36.97.46l.7.46c.34.26.79.06,1.06-.28l1.15-1.45Z"/>
  </g>
</svg>